<svg xmlns="http://www.w3.org/2000/svg" xmlns:xlink="http://www.w3.org/1999/xlink" version="1.1" x="0px" y="0px" viewBox="0 0 100 125" style="enable-background:new 0 0 100 100;" xml:space="preserve"><g><path d="M97.3066406,60.6884766c-0.3378906-0.2636719-1.1542969-0.3066406-4.8076172-0.3916016   c-5.0800781-0.1171875-13.5820313-0.3144531-16.9335938-2.0722656c-3.015625-1.5830078-8.2998047-7.7509766-12.5449219-12.7075195   c-2.7773438-3.2421875-5.1767578-6.0424805-6.3945313-6.9223633c-0.3642578-0.2631836-0.7060547-0.5205078-1.0371094-0.7695313   c-2.4375-1.8354492-4.3623047-3.284668-10.0878906-3.2963867c-3.503418-0.0292969-8.4462891,1.8149414-12.8164063,3.4228516   c-3.0371094,1.1166992-6.4780273,2.3798828-7.1777344,2.0361328c-9.2797852-5.5600586-15.5727539-6.8867188-18.7104492-3.9462891   C4.3032227,36.0913086,3.715332,37.8120117,3.690918,37.887207c-0.0141602,0.0439453-0.0224609,0.0898438-0.0239258,0.1362305   c-0.0952148,2.6308594,1.7421875,3.8935547,8.5405273,5.8530273c8.5498047,5.5234375,6.2451172,11.8657227,5.4868164,13.9526367   c-0.0991211,0.2724609-0.1660156,0.4707031-0.1738281,0.5400391c-0.1098633,0.2070313-0.9111328,0.6992188-1.4960938,1.0585938   c-1.7050781,1.0488281-3.8276367,2.3544922-3.4272461,4.0214844c0.1953125,0.8144531,0.6806641,1.0957031,1.0532227,1.1875   c0.1191406,0.0292969,0.2426758,0.0429688,0.3686523,0.0429688c1.3623047,0,3.0522461-1.5849609,3.3569336-1.9335938   c0.1025391-0.1132813,0.6376953-0.3925781,1.1098633-0.6386719c1.7387695-0.9082031,4.9760742-2.5986328,7.597168-5.9013672   c0.3529663-0.3150635,0.7957764-0.5881958,1.3000488-0.8301392c0.7243652,3.0261841,3.8091431,6.1669922,4.970459,6.9190063   c0.2216797,0.1435547,0.4873047,0.2148438,0.7802734,0.2148438c0.3642578,0,0.7705078-0.1103516,1.1879883-0.328125   c0.7421875-0.3886719,1.5029297-1.1347656,1.5288086-1.9248047c0.0146484-0.4580078-0.2172852-0.8564453-0.6533203-1.1210938   C35.1191406,59.0878906,35.0292969,59.0625,34.9375,59.0625c-0.0878906,0-0.3544922,0-0.6323242-0.4042969   c-0.5693359-0.8291016-0.6191406-2.3867188-0.4697266-2.7773438c0.2329712-0.3961792,2.3510132-1.3603516,4.2026978-2.0230713   c5.0096436,0.036438,9.8080444,0.661499,10.906189,0.9761963c-0.2338867,0.6269531-1.8374023,2.2685547-4.2910156,2.3330078   c-1.4272461,0.0371094-2.2822266,0.3710938-2.6137695,1.0205078c-0.3515625,0.6875,0.0810547,1.3544922,0.1313477,1.4277344   c0.0493164,0.0722656,0.1166992,0.1298828,0.1953125,0.1679688c0.1049805,0.0507813,2.6450195,1.2207031,9.9628906,0.0429688   c0.0556641-0.0087891,0.109375-0.0263672,0.1582031-0.0527344c0.8848877-0.4771729,1.6311646-1.0075684,2.2539673-1.5829468   c0.2615356,0.4691162,0.5634766,1.1984253,0.3388062,1.7860718c-0.2060547,0.5371094-0.8505859,0.9052734-1.9169922,1.09375   C49.9243164,61.6416016,48.8754883,62,48.4848633,62.6679688c-0.253418,0.4355469-0.1430664,0.8955078-0.019043,1.2480469   c0.2216797,0.6269531,0.7387695,0.8164063,1.3603516,0.8164063c0.4975586,0,1.0615234-0.1210938,1.59375-0.2353516   c0.5253906-0.1123047,1.0673828-0.2285156,1.5371094-0.2470703c1.1064453-0.0449219,4.6865234-0.7314453,6.5615234-3.2197266   c0.9367676-1.2427979,1.3105469-2.7403564,1.1361084-4.4558105c8.9591675,6.7548218,20.1519165,9.0413818,33.3023682,6.760498   c0.5087891-0.0878906,0.8759766-0.1533203,1.0830078-0.1699219c1.5146484-0.1210938,2.5048828-0.5976563,2.7167969-1.3056641   C97.8837891,61.4365234,97.7197266,61.0097656,97.3066406,60.6884766z M32.9082031,55.5078125   c-0.2792969,0.7275391-0.159668,2.6503906,0.5722656,3.7158203c0.4121094,0.5996094,0.9008789,0.7900391,1.2856445,0.8300781   c0.0878906,0.0771484,0.0859375,0.1376953,0.0849609,0.1708984c-0.0087891,0.2695313-0.3911133,0.7558594-0.9931641,1.0703125   c-0.4619141,0.2412109-0.8154297,0.2539063-0.9614258,0.1601563c-0.9516602-0.6157227-3.9988403-3.6507568-4.571228-6.4680786   c1.8540039-0.6506348,4.3167114-0.968689,6.9014893-1.0811768C34.0985718,54.4212646,33.1030273,55.0014648,32.9082031,55.5078125z    M58.7197266,60.4287109C57.0488281,62.6455078,53.7177734,63.21875,52.9179688,63.25   c-0.5556641,0.0224609-1.1416016,0.1484375-1.7070313,0.2695313c-0.7568359,0.1621094-1.6958008,0.3623047-1.8017578,0.0644531   c-0.1132813-0.3212891-0.0737305-0.3886719-0.0605469-0.4111328c0.2695313-0.4619141,2.875-0.921875,3.9882813-1.1181641   c1.4365234-0.2529297,2.3369141-0.8320313,2.6767578-1.7207031c0.4215088-1.0990601-0.1876221-2.3096313-0.552002-2.8901978   c0.7412109-0.8908691,1.2064819-1.8799438,1.3869629-2.9623413c0.0449219-0.2695313,0.0712891-0.5380859,0.0810547-0.8046875   c0.4927368,0.3769531,1.307251,1.0126343,2.5724487,2.0174561C59.9256592,57.5787354,59.6670532,59.1729126,58.7197266,60.4287109z    M94.9599609,62.1689453c-0.2236328,0.0175781-0.6220703,0.0849609-1.1738281,0.1806641   c-13.2412109,2.2958984-24.453125-0.1123047-33.3076172-7.1582031c-2.328125-1.8525391-3.2470703-2.5498047-3.6259766-2.8193359   c-0.4599609-3.0395508-2.7021484-5.5024414-2.8183594-5.6279297c-0.1865234-0.2011719-0.5029297-0.2148438-0.7060547-0.027832   s-0.2158203,0.503418-0.0283203,0.7060547c0.0253906,0.0283203,2.1513672,2.3691406,2.5644531,5.1235352   c-0.0273438,0.1201172-0.0117188,0.2402344,0.0419922,0.3408203c0.0449219,0.4716797,0.0361328,0.9521484-0.0439453,1.4345703   c-0.3017578,1.8007813-1.5722656,3.3251953-3.7753906,4.53125c-5.9506836,0.9482422-8.5449219,0.2832031-9.1455078,0.0820313   c-0.0322266-0.0849609-0.0576172-0.2011719-0.0112305-0.2919922c0.0371094-0.0732422,0.2958984-0.4375,1.7495117-0.4755859   c2.6015625-0.0693359,4.5576172-1.6835938,5.1157227-2.8085938c0.2890625-0.5820313,0.1757813-0.9472656,0.0297852-1.1503906   c-0.1118164-0.1552734-0.34375-0.4775391-4.2363281-0.9052734c-0.711731-0.0786133-3.878418-0.4023438-7.5684204-0.4138184   c-0.0675049-0.0148926-0.1359253-0.0151367-0.2061157,0.0004883c-3.4581299,0.0003052-7.3341064,0.2833252-10.0757446,1.2974243   c-0.0131226,0.0009155-0.0251465-0.0042725-0.0383911-0.0022583c-0.0910645,0.0113525-0.1679077,0.0526733-0.2359619,0.1046753   c-0.8341675,0.3331299-1.5533447,0.7384033-2.1053467,1.2322388c-2.5473633,3.1992188-5.6625977,4.8251953-7.3359375,5.6992188   c-0.7358398,0.3837891-1.1796875,0.6162109-1.3989258,0.8671875c-0.4956055,0.5664063-2.0410156,1.7451172-2.7338867,1.578125   c-0.0615234-0.015625-0.2260742-0.0566406-0.3203125-0.4501953c-0.230957-0.9619141,1.7001953-2.1503906,2.9785156-2.9355469   c1.2441406-0.765625,1.8466797-1.1572266,1.9433594-1.6904297c0.015625-0.0820313,0.0712891-0.2226563,0.1425781-0.4189453   c2.2207031-6.1113281,0.2197266-11.2172852-5.9477539-15.175293c-0.0410156-0.0258789-0.0854492-0.0463867-0.1318359-0.0595703   c-2.8771362-0.8271484-4.7323608-1.4968872-5.9204102-2.1300659c0.4063721-0.135498,0.8362427-0.296814,1.1137695-0.4553833   c0.2397461-0.137207,0.3232422-0.4423828,0.1860352-0.6821289c-0.137207-0.2402344-0.4438477-0.324707-0.6821289-0.1860352   c-0.3637695,0.2078247-1.2058105,0.4699707-1.6975708,0.6102905c-0.5824585-0.5003662-0.8191528-1.006958-0.8746338-1.5809326   c0.0163574,0.0010376,0.0302734,0.0090332,0.046875,0.0090332c0.3974609,0,0.7196655-0.3078003,0.7196655-0.6875   c0-0.1437988-0.0569458-0.2697144-0.1359863-0.380127c0.3590088-0.2306519,0.8898315-0.423645,1.6809082-0.4116821   c0.1469727-0.0073242,0.2685547-0.0517578,0.3652344-0.1489258c2.6796875-2.7207031,8.7788086-1.3530273,17.6699219,3.9711914   c1.0673828,0.5341797,3.6069336-0.3564453,8.003418-1.9736328c4.0791016-1.5004883,9.1572266-3.34375,12.4692383-3.3613281   c5.3920898,0.0107422,7.1103516,1.3046875,9.4882813,3.0952148c0.3359375,0.2529297,0.6835938,0.5141602,1.0527344,0.78125   c1.1220703,0.8100586,3.484375,3.5683594,6.2207031,6.762207C66.5625,51.1894531,71.9150391,57.4384766,75.1005859,59.109375   c3.5595703,1.8671875,11.8730469,2.0595703,17.375,2.1875c1.9414063,0.0449219,3.9501953,0.0917969,4.2167969,0.1806641   c0.0751953,0.0585938,0.0986328,0.0986328,0.1044922,0.0996094C96.7578125,61.6757813,96.3359375,62.0585938,94.9599609,62.1689453   z"/><circle cx="9.416687" cy="37.083313" r="0.5"/></g><text x="0" y="115" fill="#000000" font-size="5px" font-weight="bold" font-family="'Helvetica Neue', Helvetica, Arial-Unicode, Arial, Sans-serif">Created by Evgeni Moryakov</text><text x="0" y="120" fill="#000000" font-size="5px" font-weight="bold" font-family="'Helvetica Neue', Helvetica, Arial-Unicode, Arial, Sans-serif">from the Noun Project</text></svg>